#tb 0: 1/25
0,          0,          0,        1,   152064, 0x2744afa1
0,          1,          1,        1,   152064, 0x17246583
0,          2,          2,        1,   152064, 0x501836ed
0,          3,          3,        1,   152064, 0xe90d6961
0,          4,          4,        1,   152064, 0x27abe1ad
0,          5,          5,        1,   152064, 0xcfc730e4
0,          6,          6,        1,   152064, 0xeaaa83ee
0,          7,          7,        1,   152064, 0xb5d80ebd
0,          8,          8,        1,   152064, 0x1e1b9d03
0,          9,          9,        1,   152064, 0x60e7cf33
0,         10,         10,        1,   152064, 0xc44616b1
0,         11,         11,        1,   152064, 0x0a2a5906
0,         12,         12,        1,   152064, 0xf101309c
0,         13,         13,        1,   152064, 0x0b57f348
0,         14,         14,        1,   152064, 0x4f018c05
0,         15,         15,        1,   152064, 0x22359c60
0,         16,         16,        1,   152064, 0x020f1cc3
0,         17,         17,        1,   152064, 0x15be3892
0,         18,         18,        1,   152064, 0x834a2e23
0,         19,         19,        1,   152064, 0x1176586c
0,         20,         20,        1,   152064, 0x9cf25641
0,         21,         21,        1,   152064, 0xc1c4051d
0,         22,         22,        1,   152064, 0x790d8bfa
0,         23,         23,        1,   152064, 0x4dcbe7d7
0,         24,         24,        1,   152064, 0xe81d3b7b
0,         25,         25,        1,   152064, 0xe9e21309
0,         26,         26,        1,   152064, 0x22021dbc
0,         27,         27,        1,   152064, 0x430c5ecb
0,         28,         28,        1,   152064, 0xf524be8b
0,         29,         29,        1,   152064, 0xa437dadc
0,         30,         30,        1,   152064, 0xff00b440
0,         31,         31,        1,   152064, 0x4bd1bf15
0,         32,         32,        1,   152064, 0x1f46a3ea
0,         33,         33,        1,   152064, 0x60b47c5e
0,         34,         34,        1,   152064, 0x45117ac6
0,         35,         35,        1,   152064, 0x43894fca
0,         36,         36,        1,   152064, 0x21572b55
0,         37,         37,        1,   152064, 0xe96def09
0,         38,         38,        1,   152064, 0x4d2ab41f
0,         39,         39,        1,   152064, 0x072d6b06
0,         40,         40,        1,   152064, 0x81865687
0,         41,         41,        1,   152064, 0x8d9a0ea6
0,         42,         42,        1,   152064, 0x1484d3cd
0,         43,         43,        1,   152064, 0xbdabae6b
0,         44,         44,        1,   152064, 0x4211edbe
0,         45,         45,        1,   152064, 0xd84dad6d
0,         46,         46,        1,   152064, 0xe4e79344
0,         47,         47,        1,   152064, 0x9c1addd7
0,         48,         48,        1,   152064, 0xdcf94283
0,         49,         49,        1,   152064, 0x6bd005b2
0,         50,         50,        1,   152064, 0x9679bd10
0,         51,         51,        1,   152064, 0x052064ab
0,         52,         52,        1,   152064, 0x915db3f3
0,         53,         53,        1,   152064, 0xec2fbd58
0,         54,         54,        1,   152064, 0x26728258
0,         55,         55,        1,   152064, 0x2b2b617f
0,         56,         56,        1,   152064, 0x2339eb3d
0,         57,         57,        1,   152064, 0xcf6e6773
0,         58,         58,        1,   152064, 0xb993efe4
0,         59,         59,        1,   152064, 0x4054253d
0,         60,         60,        1,   152064, 0x4befe5b5
0,         61,         61,        1,   152064, 0x0678c0fa
0,         62,         62,        1,   152064, 0xe3c54a03
0,         63,         63,        1,   152064, 0xffa3210c
0,         64,         64,        1,   152064, 0xed04b823
0,         65,         65,        1,   152064, 0x00926457
0,         66,         66,        1,   152064, 0xd56aaaf0
0,         67,         67,        1,   152064, 0x6047ef6e
0,         68,         68,        1,   152064, 0x44316d07
0,         69,         69,        1,   152064, 0xe8a879b7
0,         70,         70,        1,   152064, 0x1856cd86
0,         71,         71,        1,   152064, 0x6528349a
0,         72,         72,        1,   152064, 0xdeff676e
0,         73,         73,        1,   152064, 0xda412e47
0,         74,         74,        1,   152064, 0xa2c2a96f
0,         75,         75,        1,   152064, 0xc703b8cd
0,         76,         76,        1,   152064, 0x20b0650b
0,         77,         77,        1,   152064, 0x8c14faa5
0,         78,         78,        1,   152064, 0xa442706c
0,         79,         79,        1,   152064, 0x6e456137
0,         80,         80,        1,   152064, 0x6dde11c6
0,         81,         81,        1,   152064, 0xb017978a
0,         82,         82,        1,   152064, 0xc0bad34b
0,         83,         83,        1,   152064, 0x8bd439ee
0,         84,         84,        1,   152064, 0xa92735e4
0,         85,         85,        1,   152064, 0x1623f501
0,         86,         86,        1,   152064, 0x5be980b2
0,         87,         87,        1,   152064, 0x4306b9bf
0,         88,         88,        1,   152064, 0xb4f18976
0,         89,         89,        1,   152064, 0x4ffb9b46
0,         90,         90,        1,   152064, 0x23082275
0,         91,         91,        1,   152064, 0xc7f0e087
0,         92,         92,        1,   152064, 0x68b95327
0,         93,         93,        1,   152064, 0xd030a8e4
0,         94,         94,        1,   152064, 0xf8f9615c
0,         95,         95,        1,   152064, 0x1b26fe3e
0,         96,         96,        1,   152064, 0x3381608d
0,         97,         97,        1,   152064, 0x9939d49d
0,         98,         98,        1,   152064, 0x575f4f94
0,         99,         99,        1,   152064, 0x436c581c
0,        100,        100,        1,   152064, 0x8f47aa58
0,        101,        101,        1,   152064, 0xd251d95a
0,        102,        102,        1,   152064, 0x3c33b32c
0,        103,        103,        1,   152064, 0xa1e19413
0,        104,        104,        1,   152064, 0x8d95cbad
0,        105,        105,        1,   152064, 0x98cbd35e
0,        106,        106,        1,   152064, 0xceb81a0f
0,        107,        107,        1,   152064, 0x5490fab1
0,        108,        108,        1,   152064, 0x8e57a38c
0,        109,        109,        1,   152064, 0xc379517a
0,        110,        110,        1,   152064, 0xafc4f747
0,        111,        111,        1,   152064, 0xbc9c9be4
0,        112,        112,        1,   152064, 0xd602b2f5
0,        113,        113,        1,   152064, 0x8d85a450
0,        114,        114,        1,   152064, 0x48183c74
0,        115,        115,        1,   152064, 0xd1725590
0,        116,        116,        1,   152064, 0x5ef42ed7
0,        117,        117,        1,   152064, 0xad3a3883
0,        118,        118,        1,   152064, 0x7a3e0ddd
0,        119,        119,        1,   152064, 0x59bdfd38
0,        120,        120,        1,   152064, 0x5ac3ba9f
0,        121,        121,        1,   152064, 0x266cbd00
0,        122,        122,        1,   152064, 0x97d29e00
0,        123,        123,        1,   152064, 0x620774c2
0,        124,        124,        1,   152064, 0xaae8b96f
0,        125,        125,        1,   152064, 0x5f6bdfb6
0,        126,        126,        1,   152064, 0xb239da53
0,        127,        127,        1,   152064, 0x654b5680
0,        128,        128,        1,   152064, 0xd796b723
0,        129,        129,        1,   152064, 0xd5c84a81
0,        130,        130,        1,   152064, 0x2a761652
0,        131,        131,        1,   152064, 0x1137e145
0,        132,        132,        1,   152064, 0x1a9a451b
0,        133,        133,        1,   152064, 0x5ca751c4
0,        134,        134,        1,   152064, 0x074acec7
0,        135,        135,        1,   152064, 0x9ddfe77d
0,        136,        136,        1,   152064, 0xfb211c29
0,        137,        137,        1,   152064, 0x681ad4dd
0,        138,        138,        1,   152064, 0x702c12cc
0,        139,        139,        1,   152064, 0x556c5101
0,        140,        140,        1,   152064, 0x39d4bb54
0,        141,        141,        1,   152064, 0xa3a118d6
0,        142,        142,        1,   152064, 0xb78b7db1
0,        143,        143,        1,   152064, 0x4e20eed5
0,        144,        144,        1,   152064, 0x6555a9df
0,        145,        145,        1,   152064, 0xb607a9a4
0,        146,        146,        1,   152064, 0x3cf96a94
0,        147,        147,        1,   152064, 0xb2679007
0,        148,        148,        1,   152064, 0xf09d5b85
0,        149,        149,        1,   152064, 0x3961ba07
0,        150,        150,        1,   152064, 0x0c28363a
0,        151,        151,        1,   152064, 0x0a017c2d
0,        152,        152,        1,   152064, 0x3a661de3
0,        153,        153,        1,   152064, 0xf8d1bdee
0,        154,        154,        1,   152064, 0x6f47791b
0,        155,        155,        1,   152064, 0xe05b22c6
0,        156,        156,        1,   152064, 0x7cc93bb0
0,        157,        157,        1,   152064, 0xeb90c3d8
0,        158,        158,        1,   152064, 0x1a1eac98
0,        159,        159,        1,   152064, 0x92985671
0,        160,        160,        1,   152064, 0x2fe3ce53
0,        161,        161,        1,   152064, 0x61def691
0,        162,        162,        1,   152064, 0x90820730
0,        163,        163,        1,   152064, 0x17630372
0,        164,        164,        1,   152064, 0xaf6cea12
0,        165,        165,        1,   152064, 0xfe3b7ecc
0,        166,        166,        1,   152064, 0x904a5b2e
0,        167,        167,        1,   152064, 0x0d88d5f2
0,        168,        168,        1,   152064, 0x498d22b1
0,        169,        169,        1,   152064, 0x56baba83
0,        170,        170,        1,   152064, 0xda4d6dfa
0,        171,        171,        1,   152064, 0xaa38cbdd
0,        172,        172,        1,   152064, 0x4077f15d
0,        173,        173,        1,   152064, 0x7e006ec2
0,        174,        174,        1,   152064, 0x59964a89
0,        175,        175,        1,   152064, 0x04c078e3
0,        176,        176,        1,   152064, 0x7a5faf97
0,        177,        177,        1,   152064, 0xc517b3e9
0,        178,        178,        1,   152064, 0xfcc81af5
0,        179,        179,        1,   152064, 0xdcb44f62
0,        180,        180,        1,   152064, 0x2a080b72
0,        181,        181,        1,   152064, 0x91f88c67
0,        182,        182,        1,   152064, 0xd39caf81
0,        183,        183,        1,   152064, 0x0764ae31
0,        184,        184,        1,   152064, 0x0ddb82ed
0,        185,        185,        1,   152064, 0xed6d17e4
0,        186,        186,        1,   152064, 0xb4f74712
0,        187,        187,        1,   152064, 0x23a20787
0,        188,        188,        1,   152064, 0x853e7b33
0,        189,        189,        1,   152064, 0xc6bac173
0,        190,        190,        1,   152064, 0xb590ec15
0,        191,        191,        1,   152064, 0xfdd2943c
0,        192,        192,        1,   152064, 0xba5d1160
0,        193,        193,        1,   152064, 0xe732c5a7
0,        194,        194,        1,   152064, 0x279f6ce9
0,        195,        195,        1,   152064, 0xb3835829
0,        196,        196,        1,   152064, 0x0901b2a1
0,        197,        197,        1,   152064, 0x3df2b8f8
0,        198,        198,        1,   152064, 0x374496a4
0,        199,        199,        1,   152064, 0x1bc6a4ae
0,        200,        200,        1,   152064, 0xdb4b372e
0,        201,        201,        1,   152064, 0x8c11c214
0,        202,        202,        1,   152064, 0xd2d5c093
0,        203,        203,        1,   152064, 0x8dda094e
0,        204,        204,        1,   152064, 0x9b2cc401
0,        205,        205,        1,   152064, 0x1a3b49d5
0,        206,        206,        1,   152064, 0xaf5342ff
0,        207,        207,        1,   152064, 0x74c0de83
0,        208,        208,        1,   152064, 0xcf486137
0,        209,        209,        1,   152064, 0xcf005b3b
0,        210,        210,        1,   152064, 0x86a64c55
0,        211,        211,        1,   152064, 0xdd3f7ae9
0,        212,        212,        1,   152064, 0xb0d01e53
0,        213,        213,        1,   152064, 0x83219065
0,        214,        214,        1,   152064, 0x17a35d27
0,        215,        215,        1,   152064, 0xf92645b5
0,        216,        216,        1,   152064, 0x8322bdbf
0,        217,        217,        1,   152064, 0xd589f6a2
0,        218,        218,        1,   152064, 0x80a62d9e
0,        219,        219,        1,   152064, 0x05b3e0d1
0,        220,        220,        1,   152064, 0xd657aa0b
0,        221,        221,        1,   152064, 0xec5ac2dd
0,        222,        222,        1,   152064, 0xbf0ff969
0,        223,        223,        1,   152064, 0xc34a5140
0,        224,        224,        1,   152064, 0x814705c4
0,        225,        225,        1,   152064, 0xe9592008
0,        226,        226,        1,   152064, 0xf12c933c
0,        227,        227,        1,   152064, 0x2daee178
0,        228,        228,        1,   152064, 0xa2573028
0,        229,        229,        1,   152064, 0x6109f58d
0,        230,        230,        1,   152064, 0x64ab8ce4
0,        231,        231,        1,   152064, 0x13a88b6e
0,        232,        232,        1,   152064, 0x8f0181a9
0,        233,        233,        1,   152064, 0xd5295fd4
0,        234,        234,        1,   152064, 0xfdbeeb0d
0,        235,        235,        1,   152064, 0x05ecd231
0,        236,        236,        1,   152064, 0x48d164cd
0,        237,        237,        1,   152064, 0xc279cf63
0,        238,        238,        1,   152064, 0x1d5e6a03
0,        239,        239,        1,   152064, 0xd9dc1807
0,        240,        240,        1,   152064, 0xbcc83676
0,        241,        241,        1,   152064, 0x65a9811e
0,        242,        242,        1,   152064, 0x3ccfe5a8
0,        243,        243,        1,   152064, 0x2f2ff051
0,        244,        244,        1,   152064, 0x9193e093
0,        245,        245,        1,   152064, 0x9a30fdc6
0,        246,        246,        1,   152064, 0x90b7ea10
0,        247,        247,        1,   152064, 0x3291910c
0,        248,        248,        1,   152064, 0x2335d186
0,        249,        249,        1,   152064, 0x2890cf1d
0,        250,        250,        1,   152064, 0x8c8b6245
0,        251,        251,        1,   152064, 0x24b84eda
0,        252,        252,        1,   152064, 0x04a12446
0,        253,        253,        1,   152064, 0xd9d91d51
0,        254,        254,        1,   152064, 0xbf450adf
0,        255,        255,        1,   152064, 0xa19a9a41
0,        256,        256,        1,   152064, 0x2211ab01
0,        257,        257,        1,   152064, 0x8fe85430
0,        258,        258,        1,   152064, 0x5a152861
0,        259,        259,        1,   152064, 0x7fe76995
0,        260,        260,        1,   152064, 0x508b99cd
0,        261,        261,        1,   152064, 0x92e79437
0,        262,        262,        1,   152064, 0x8572eac9
0,        263,        263,        1,   152064, 0x42e3d513
0,        264,        264,        1,   152064, 0x6bee9e38
0,        265,        265,        1,   152064, 0x2858ad4b
0,        266,        266,        1,   152064, 0x96d87d00
0,        267,        267,        1,   152064, 0x749f1032
0,        268,        268,        1,   152064, 0x668fca6c
0,        269,        269,        1,   152064, 0x11d278d9
0,        270,        270,        1,   152064, 0x10fd46ea
0,        271,        271,        1,   152064, 0xc8b193c8
0,        272,        272,        1,   152064, 0x035e7d02
0,        273,        273,        1,   152064, 0x067f583c
0,        274,        274,        1,   152064, 0xd9648a1e
0,        275,        275,        1,   152064, 0x92487b7e
0,        276,        276,        1,   152064, 0xc7b35421
0,        277,        277,        1,   152064, 0x2ed57c1c
0,        278,        278,        1,   152064, 0xefe24c5f
0,        279,        279,        1,   152064, 0x8df0118b
0,        280,        280,        1,   152064, 0x18f0278d
0,        281,        281,        1,   152064, 0x63ac45ad
0,        282,        282,        1,   152064, 0xd79849f0
0,        283,        283,        1,   152064, 0x1f1d4dab
0,        284,        284,        1,   152064, 0x736fb5b8
0,        285,        285,        1,   152064, 0xc24eb80c
0,        286,        286,        1,   152064, 0x64ca3b11
0,        287,        287,        1,   152064, 0x35d8674c
0,        288,        288,        1,   152064, 0x3c5a7b51
0,        289,        289,        1,   152064, 0x97550b81
0,        290,        290,        1,   152064, 0x731454b5
0,        291,        291,        1,   152064, 0x01de43bc
0,        292,        292,        1,   152064, 0xbda7afae
0,        293,        293,        1,   152064, 0xeb34d714
0,        294,        294,        1,   152064, 0x1260cc98
0,        295,        295,        1,   152064, 0x7e592c36
0,        296,        296,        1,   152064, 0x40b3676e
0,        297,        297,        1,   152064, 0x8c9d6b94
0,        298,        298,        1,   152064, 0xc7988665
0,        299,        299,        1,   152064, 0xf2994d52
